<svg width="16" height="13" viewBox="0 0 16 13" fill="none" xmlns="http://www.w3.org/2000/svg">
<path d="M12.6667 12V8.00004M10.6667 10H14.6667M14.6667 4.66671H1.33334M14.6667 6.00004V3.46671C14.6667 2.71997 14.6667 2.3466 14.5213 2.06139C14.3935 1.81051 14.1895 1.60653 13.9387 1.4787C13.6534 1.33337 13.2801 1.33337 12.5333 1.33337H3.46667C2.71993 1.33337 2.34656 1.33337 2.06135 1.4787C1.81047 1.60653 1.60649 1.8105 1.47866 2.06139C1.33334 2.3466 1.33334 2.71997 1.33334 3.46671V8.53337C1.33334 9.28011 1.33334 9.65348 1.47866 9.93869C1.60649 10.1896 1.81047 10.3936 2.06135 10.5214C2.34656 10.6667 2.71993 10.6667 3.46667 10.6667H8" stroke="#009696" stroke-width="1.33333" stroke-linecap="round" stroke-linejoin="round"/>
</svg>
