<svg width="16" height="16" viewBox="0 0 16 16" fill="none" xmlns="http://www.w3.org/2000/svg">
<path d="M3.5442 12.959C3.94975 12.0035 4.89661 11.3334 6 11.3334H10C11.1034 11.3334 12.0502 12.0035 12.4558 12.959M10.6667 6.33337C10.6667 7.80613 9.47276 9.00004 8 9.00004C6.52724 9.00004 5.33333 7.80613 5.33333 6.33337C5.33333 4.86061 6.52724 3.66671 8 3.66671C9.47276 3.66671 10.6667 4.86061 10.6667 6.33337ZM14.6667 8.00004C14.6667 11.6819 11.6819 14.6667 8 14.6667C4.3181 14.6667 1.33333 11.6819 1.33333 8.00004C1.33333 4.31814 4.3181 1.33337 8 1.33337C11.6819 1.33337 14.6667 4.31814 14.6667 8.00004Z" stroke="#009696" stroke-width="1.33" stroke-linecap="round" stroke-linejoin="round"/>
</svg>
