<svg width="20" height="18" viewBox="0 0 20 18" fill="none" xmlns="http://www.w3.org/2000/svg">
<path d="M16 1L19 4L16 7M16 17L19 14L16 11" stroke="#A5A5A6" stroke-width="2" stroke-linecap="round" stroke-linejoin="round"/>
<path d="M1 4H4C5.32608 4 6.59785 4.52678 7.53553 5.46446C8.47322 6.40215 9 7.67392 9 9C9 10.3261 9.52678 11.5979 10.4645 12.5355C11.4021 13.4732 12.6739 14 14 14H19M19 4H14C12.9179 3.9984 11.8647 4.34946 11 5M7 13C6.13506 13.6501 5.08204 14.0012 4 14H1" stroke="#A5A5A6" stroke-width="2" stroke-linecap="round" stroke-linejoin="round"/>
</svg>
