<svg width="20" height="18" viewBox="0 0 20 18" fill="none" xmlns="http://www.w3.org/2000/svg">
<path d="M19 14H13.603C12.7991 13.9999 12.007 13.806 11.294 13.4347C10.581 13.0634 9.96797 12.5256 9.507 11.867L8.993 11.133C8.53203 10.4744 7.91904 9.9366 7.20601 9.56528C6.49298 9.19397 5.70092 9.00006 4.897 9H1H4.9C5.70427 8.99988 6.49664 8.80574 7.20987 8.43406C7.9231 8.06239 8.53615 7.52414 8.997 6.865L9.507 6.135C9.96794 5.47572 10.5812 4.93739 11.2946 4.56571C12.008 4.19402 12.8006 3.99996 13.605 4H19" stroke="white" stroke-opacity="0.8" stroke-width="2" stroke-linecap="round" stroke-linejoin="round"/>
<path d="M16 7L19 4L16 1M16 17L19 14L16 11" stroke="white" stroke-opacity="0.8" stroke-width="2" stroke-linecap="round" stroke-linejoin="round"/>
</svg>
