<svg width="14" height="14" viewBox="0 0 14 14" fill="none" xmlns="http://www.w3.org/2000/svg">
<path d="M6.52178 1.30221C6.67543 0.990919 6.75226 0.835273 6.85656 0.785544C6.94731 0.742277 7.05273 0.742277 7.14348 0.785544C7.24778 0.835273 7.32461 0.990919 7.47827 1.30221L8.93605 4.25552C8.98141 4.34742 9.0041 4.39337 9.03724 4.42905C9.06659 4.46064 9.10179 4.48623 9.14089 4.50442C9.18505 4.52495 9.23575 4.53236 9.33716 4.54718L12.598 5.02381C12.9414 5.074 13.1131 5.09909 13.1925 5.18296C13.2617 5.25593 13.2942 5.3562 13.281 5.45585C13.2659 5.57039 13.1416 5.69145 12.893 5.93359L10.5343 8.23095C10.4608 8.30256 10.424 8.33837 10.4003 8.38098C10.3793 8.4187 10.3658 8.46014 10.3606 8.50301C10.3547 8.55142 10.3634 8.602 10.3808 8.70316L10.9373 11.9481C10.996 12.2903 11.0254 12.4615 10.9702 12.563C10.9222 12.6514 10.8369 12.7133 10.7381 12.7317C10.6244 12.7527 10.4708 12.6719 10.1634 12.5103L7.24826 10.9772C7.15743 10.9295 7.11202 10.9056 7.06417 10.8962C7.02181 10.8879 6.97824 10.8879 6.93587 10.8962C6.88803 10.9056 6.84261 10.9295 6.75178 10.9772L3.83663 12.5103C3.52929 12.6719 3.37562 12.7527 3.26199 12.7317C3.16313 12.7133 3.07783 12.6514 3.02984 12.563C2.97468 12.4615 3.00403 12.2903 3.06273 11.9481L3.61927 8.70316C3.63662 8.602 3.64529 8.55142 3.63942 8.50301C3.63423 8.46014 3.62075 8.4187 3.59975 8.38098C3.57602 8.33837 3.53926 8.30256 3.46573 8.23095L1.10705 5.93359C0.858452 5.69145 0.734153 5.57039 0.719028 5.45585C0.705868 5.3562 0.738379 5.25593 0.807511 5.18296C0.886967 5.09909 1.05866 5.074 1.40204 5.02381L4.66288 4.54718C4.76429 4.53236 4.815 4.52495 4.85916 4.50442C4.89825 4.48623 4.93345 4.46064 4.9628 4.42905C4.99595 4.39337 5.01863 4.34742 5.06399 4.25552L6.52178 1.30221Z" stroke="white" stroke-opacity="0.4" stroke-width="1.33333" stroke-linecap="round" stroke-linejoin="round"/>
</svg>
