<svg width="16" height="16" viewBox="0 0 16 16" fill="none" xmlns="http://www.w3.org/2000/svg">
<g clip-path="url(#clip0_5336_1328)">
<path d="M3.5442 12.9589C3.94975 12.0035 4.89661 11.3333 6 11.3333H10C11.1034 11.3333 12.0502 12.0035 12.4558 12.9589M10.6667 6.33333C10.6667 7.80609 9.47276 9 8 9C6.52724 9 5.33333 7.80609 5.33333 6.33333C5.33333 4.86057 6.52724 3.66667 8 3.66667C9.47276 3.66667 10.6667 4.86057 10.6667 6.33333ZM14.6667 8C14.6667 11.6819 11.6819 14.6667 8 14.6667C4.3181 14.6667 1.33333 11.6819 1.33333 8C1.33333 4.3181 4.3181 1.33333 8 1.33333C11.6819 1.33333 14.6667 4.3181 14.6667 8Z" stroke="#00FFF0" stroke-width="1.33" stroke-linecap="round" stroke-linejoin="round"/>
</g>
<defs>
<clipPath id="clip0_5336_1328">
<rect width="16" height="16" fill="white"/>
</clipPath>
</defs>
</svg>
